<?xml version="1.0" encoding="UTF-8" standalone="no"?><!-- Generator: Gravit.io --><svg xmlns="http://www.w3.org/2000/svg" xmlns:xlink="http://www.w3.org/1999/xlink" style="isolation:isolate" viewBox="580.4 -144 516.6 516.6" width="100%" height="100%"><defs><clipPath id="_clipPath_F97hnmXmeo8g5lP18DHIWpDxN80PJypi"><rect x="580.4" y="-144" width="516.6" height="516.6"/></clipPath></defs><g clip-path="url(#_clipPath_F97hnmXmeo8g5lP18DHIWpDxN80PJypi)"><path d=" M 838.7 -144 C 696.045 -144 580.4 -28.355 580.4 114.3 C 580.4 256.955 696.045 372.6 838.7 372.6 C 981.355 372.6 1097 256.955 1097 114.3 C 1097 45.795 1069.786 -19.905 1021.346 -68.346 C 972.905 -116.786 907.205 -144 838.7 -144 Z  M 1025.367 -24.767 C 1054.075 13.085 1070.375 58.889 1072.033 106.367 C 1047.577 65.573 1015.959 29.529 978.7 -0.033 C 980.172 -4.155 980.961 -8.49 981.033 -12.867 L 981.033 -12.867 Q 1002.733 -19.867 1025.133 -24.767 L 1025.367 -24.767 Z  M 834.033 -118.1 L 838.933 -118.1 C 902.259 -117.977 962.815 -92.121 1006.7 -46.467 C 997.6 -44.367 985.933 -41.333 972.633 -37.367 C 966.105 -46.32 956.27 -52.294 945.315 -53.959 C 934.36 -55.624 923.194 -52.843 914.3 -46.233 L 908.933 -41.567 C 897.671 -46.747 886.053 -51.114 874.167 -54.633 C 862.967 -57.9 852.233 -60.467 841.5 -62.8 C 839.213 -73.859 832.569 -83.531 823.067 -89.633 C 826.05 -99.412 829.635 -108.997 833.8 -118.333 L 834.033 -118.1 Z  M 934.133 -29.667 C 935.68 -29.9 937.253 -29.9 938.8 -29.667 C 941.203 -29.673 943.584 -29.197 945.8 -28.267 L 945.8 -28.267 C 947.646 -27.538 949.317 -26.424 950.7 -25 L 951.867 -23.6 C 952.724 -22.489 953.504 -21.319 954.2 -20.1 L 954.2 -18.467 C 955.835 -14.426 955.835 -9.908 954.2 -5.867 C 953.562 -4.54 952.779 -3.288 951.867 -2.133 L 951.867 -0.733 C 949.082 2.368 945.27 4.357 941.133 4.867 L 932.967 4.867 L 930.4 1.6 L 928.767 1.6 L 926.433 -0.733 L 923.633 -4 L 923.633 -6.1 C 922.012 -10.063 922.012 -14.504 923.633 -18.467 L 925.033 -21.033 L 926.433 -23.133 C 927.121 -24.581 927.901 -25.984 928.767 -27.333 L 928.767 -27.333 C 930.206 -28.268 931.78 -28.976 933.433 -29.433 L 934.133 -29.667 Z  M 897.267 -7.967 C 865.218 8.092 835.857 29.031 810.233 54.1 L 804.633 52.233 L 802.067 52.233 C 801.091 30.409 802.106 8.54 805.1 -13.1 C 819.875 -14.851 832.638 -24.246 838.7 -37.833 C 847.8 -35.967 857.133 -33.633 866.933 -30.6 C 877.45 -27.405 887.739 -23.507 897.733 -18.933 C 897.5 -16.84 897.5 -14.727 897.733 -12.633 C 897.618 -11.002 897.618 -9.365 897.733 -7.733 L 897.267 -7.967 Z  M 751.433 220.467 C 751.433 230.261 743.494 238.2 733.7 238.2 C 731.84 238.425 729.96 238.425 728.1 238.2 L 726 238.2 L 723.9 236.8 C 722.296 235.064 721.1 232.991 720.4 230.733 L 720.4 230.733 C 718.998 228.788 718.042 226.557 717.6 224.2 L 717.6 224.2 L 717.6 220.933 C 717.597 211.319 725.256 203.453 734.867 203.2 L 734.867 203.2 C 736.873 202.847 738.927 202.847 740.933 203.2 L 743.733 203.2 L 747 205.533 L 748.633 206.933 C 749.853 208.257 750.875 209.75 751.667 211.367 L 751.667 211.367 L 751.667 213.467 L 751.667 213.467 C 752.096 215.789 752.016 218.178 751.433 220.467 Z  M 758.2 186.4 C 764.333 167.915 772.143 150.029 781.533 132.967 L 785.267 134.133 L 790.4 134.133 C 802.775 172.827 822.065 208.956 847.333 240.767 C 846.417 242.249 845.636 243.811 845 245.433 C 821.044 241.72 797.569 235.382 775 226.533 C 778.015 210.739 771.312 194.67 757.967 185.7 L 758.2 186.4 Z  M 808.833 104.267 L 806.5 106.6 L 803 108.933 L 801.367 108.933 C 799.51 109.676 797.533 110.071 795.533 110.1 L 795.533 110.1 C 785.739 110.1 777.8 102.161 777.8 92.367 L 777.8 92.367 C 777.834 89.692 778.472 87.06 779.667 84.667 L 779.667 84.667 C 780.387 83.334 781.247 82.083 782.233 80.933 L 784.333 79.067 L 787.133 77.2 L 789 77.2 C 790.937 76.454 792.991 76.059 795.067 76.033 L 795.067 76.033 C 797.216 76.082 799.343 76.476 801.367 77.2 L 804.4 78.833 L 806.267 80.233 C 807.477 81.366 808.571 82.617 809.533 83.967 L 809.533 83.967 C 810.47 85.571 811.177 87.299 811.633 89.1 C 811.864 90.412 811.864 91.755 811.633 93.067 C 812.013 97.011 811.024 100.965 808.833 104.267 Z  M 817.7 -54.867 C 817.707 -52.538 817.231 -50.234 816.3 -48.1 C 815.411 -46.144 814.231 -44.335 812.8 -42.733 L 809.3 -40.167 L 805.333 -38.3 L 799.967 -38.3 C 790.173 -38.3 782.233 -46.239 782.233 -56.033 C 782.233 -65.827 790.173 -73.767 799.967 -73.767 C 809.761 -73.767 817.7 -65.827 817.7 -56.033 L 817.7 -54.867 Z  M 805.1 -116 C 803 -110.633 800.433 -104.1 798.1 -96.633 C 782.825 -96.23 768.974 -87.562 761.933 -74 C 738.483 -74.428 715.045 -72.631 691.933 -68.633 C 724.755 -94.234 763.828 -110.588 805.1 -116 Z  M 657.867 -32.233 C 690.548 -42.475 724.655 -47.438 758.9 -46.933 C 761.315 -34.859 768.906 -24.453 779.667 -18.467 C 776.402 6.124 775.464 30.967 776.867 55.733 C 766.924 60.518 759.294 69.063 755.661 79.482 C 752.027 89.9 752.689 101.337 757.5 111.267 C 758.676 113.654 760.083 115.92 761.7 118.033 C 750.537 137.36 741.165 157.667 733.7 178.7 C 725.371 178.703 717.237 181.224 710.367 185.933 C 666.096 140.31 637.003 82.124 627.067 19.333 C 635.092 0.901 645.443 -16.428 657.867 -32.233 L 657.867 -32.233 Z  M 605.833 114.3 C 605.823 98.075 607.464 81.892 610.733 66 C 625.434 119.403 654.391 167.799 694.5 206 C 686.722 226.295 696.005 249.146 715.733 258.267 C 713.907 275.703 713.361 293.25 714.1 310.767 C 646.833 268.059 606.01 193.979 605.833 114.3 Z  M 839.167 347.633 C 805.356 347.648 771.964 340.156 741.4 325.7 C 739.067 304.531 739.067 283.169 741.4 262 C 750.237 260.591 758.404 256.426 764.733 250.1 L 767.067 250.1 C 792.342 259.929 818.64 266.894 845.467 270.867 C 850.564 293.22 872.81 307.215 895.167 302.133 C 898.063 301.518 900.881 300.579 903.567 299.333 C 914.3 308.667 925.267 317.533 936.933 325.933 C 906.406 339.931 873.217 347.174 839.633 347.167 L 839.167 347.633 Z  M 880.467 277.633 C 878.081 277.023 875.853 275.909 873.933 274.367 L 871.6 272.033 C 870.742 270.922 869.963 269.753 869.267 268.533 L 869.267 266.9 C 867.632 262.859 867.632 258.341 869.267 254.3 C 869.923 252.734 870.874 251.308 872.067 250.1 L 872.067 250.1 C 875.106 246.858 879.293 244.932 883.733 244.733 L 883.733 244.733 C 888.884 244.744 893.762 247.055 897.033 251.033 C 898.26 252.608 899.279 254.333 900.067 256.167 C 902.036 260.572 902.071 265.6 900.165 270.033 C 898.259 274.466 894.585 277.899 890.033 279.5 C 887.946 279.832 885.82 279.832 883.733 279.5 C 882.265 279.732 880.769 279.732 879.3 279.5 L 880.467 277.633 Z  M 961.2 311.933 L 961.2 311.933 C 947.207 302.683 933.875 292.469 921.3 281.367 C 922.427 279.358 923.364 277.249 924.1 275.067 C 957.357 273.24 990.267 267.364 1022.1 257.567 C 1005.055 279.336 984.276 297.902 960.733 312.4 L 961.2 311.933 Z  M 1045.433 221.867 C 1007.072 237.481 966.387 246.627 925.033 248.933 C 921.948 238.345 914.778 229.42 905.105 224.123 C 895.431 218.827 884.049 217.595 873.467 220.7 L 866.933 223.267 C 844.74 195.31 827.533 163.736 816.067 129.933 C 836.219 119.031 843.736 93.87 832.867 73.7 L 830.767 70.2 C 853.38 48.287 879.087 29.813 907.067 15.367 C 921.522 31.206 945.623 33.525 962.833 20.733 C 1007.117 56.925 1042.685 102.621 1066.9 154.433 C 1063.113 178.057 1055.716 200.958 1044.967 222.333 L 1045.433 221.867 Z " fill="rgb(84,84,83)"/></g></svg>