<?xml version="1.0" encoding="utf-8"?>
<!-- Generator: Adobe Illustrator 24.2.0, SVG Export Plug-In . SVG Version: 6.00 Build 0)  -->
<svg version="1.1"
	 id="svg8440" inkscape:version="0.91 r13725" sodipodi:docname="Logo ILIAS.svg" xmlns:cc="http://creativecommons.org/ns#" xmlns:dc="http://purl.org/dc/elements/1.1/" xmlns:inkscape="http://www.inkscape.org/namespaces/inkscape" xmlns:rdf="http://www.w3.org/1999/02/22-rdf-syntax-ns#" xmlns:sodipodi="http://sodipodi.sourceforge.net/DTD/sodipodi-0.dtd" xmlns:svg="http://www.w3.org/2000/svg"
	 xmlns="http://www.w3.org/2000/svg" xmlns:xlink="http://www.w3.org/1999/xlink" x="0px" y="0px" viewBox="0 0 32 32"
	 style="enable-background:new 0 0 32 32;" xml:space="preserve">
<style type="text/css">
	.st0{fill:#24437D;}
</style>
<g>
	<g>
		<g>
			<path class="st0" d="M0,0v32h32V0H0z M5.6,27.1H4.2V20h1.5V27.1z M11.9,27.1H7V20h1.5v5.9h3.4C11.9,25.9,11.9,27.1,11.9,27.1z
				 M14.3,27.1h-1.5V20h1.5C14.3,20,14.3,27.1,14.3,27.1z M20.2,27.1l-0.5-1.4h-2.7l-0.5,1.4h-1.5l2.5-7.1h1.6l2.5,7.1H20.2z
				 M25.2,27.3c-1.8,0-2.9-0.8-2.9-2.4h1.4c0,0.8,0.6,1.2,1.6,1.2c0.9,0,1.4-0.4,1.4-1c0-0.6-0.4-0.8-1.3-1l-1-0.2
				c-1.4-0.3-2-0.8-2-1.9c0-1.4,1-2.2,2.7-2.2c1,0,1.8,0.3,2.3,0.8c0.4,0.4,0.5,0.8,0.5,1.5h-1.4C26.4,21.4,25.9,21,25,21
				c-0.8,0-1.2,0.3-1.2,0.9c0,0.5,0.3,0.7,1.3,0.9l1.1,0.2c1.3,0.3,1.9,0.8,1.9,2C28.1,26.5,27,27.3,25.2,27.3z"/>
			<polygon class="st0" points="17.5,24.4 19.4,24.4 18.5,21.7 			"/>
		</g>
	</g>
</g>
</svg>
