<?xml version="1.0" encoding="utf-8"?>
<!-- Generator: Adobe Illustrator 16.0.4, SVG Export Plug-In . SVG Version: 6.00 Build 0)  -->
<!DOCTYPE svg PUBLIC "-//W3C//DTD SVG 1.1//EN" "http://www.w3.org/Graphics/SVG/1.1/DTD/svg11.dtd">
<svg version="1.1" id="Ebene_1" xmlns="http://www.w3.org/2000/svg" xmlns:xlink="http://www.w3.org/1999/xlink" x="0px" y="0px"
	 width="32px" height="32px" viewBox="0 0 32 32" enable-background="new 0 0 32 32" xml:space="preserve">
<g>
	<path d="M12.922,14.608l0.785,0.812c0.232,0.253,0.454,0.509,0.669,0.741l0.023-0.006c0.08-0.339,0.15-0.665,0.235-0.981
		l0.282-1.041l1.925-0.459l-1.23,3.166l2.613,2.534l-2.007,0.478l-0.816-0.89c-0.229-0.241-0.439-0.499-0.648-0.758l-0.035,0.009
		c-0.067,0.336-0.153,0.652-0.226,0.965L14.2,20.333l-1.949,0.464l1.244-3.365l-2.557-2.351L12.922,14.608z"/>
</g>
<g>
	<path d="M22.379,27.75v-0.912l2.219-6.908h2.183l2.159,6.896v0.924H22.379z M26.097,23.324c-0.155-0.527-0.372-1.415-0.491-1.919
		h-0.037c-0.096,0.396-0.299,1.271-0.443,1.812l-0.924,3.046h2.783L26.097,23.324z"/>
</g>
<g>
	<path d="M6.713,29.194c-0.796,1.027-1.519,2.155-3.076,2.418C1.897,31.905,0.5,30.8,0.21,29.078
		c-0.271-1.612,0.705-3.23,2.552-3.541c1.341-0.226,2.541,0.598,3.573,1.299c0.796-1.028,1.518-2.156,3.076-2.419
		c1.739-0.293,3.136,0.813,3.426,2.534c0.271,1.613-0.704,3.23-2.552,3.541C8.945,30.718,7.744,29.897,6.713,29.194z M5.412,28.221
		c-0.653-0.449-1.481-1.166-2.333-1.022c-0.743,0.125-1.219,0.839-1.094,1.581c0.134,0.797,0.791,1.264,1.497,1.145
		C4.316,29.783,4.882,28.944,5.412,28.221z M11.062,27.25c-0.134-0.797-0.79-1.264-1.496-1.145c-0.833,0.141-1.4,0.981-1.931,1.704
		c0.653,0.448,1.482,1.165,2.333,1.022C10.711,28.706,11.187,27.994,11.062,27.25z"/>
</g>
<g>
	<path d="M2.367,5.059h1.091l0.036-0.384c0.096-0.803,0.54-2.603,2.603-2.603c0.408,0,0.78,0.084,0.996,0.192L6.805,3.56
		C6.661,3.5,6.469,3.452,6.241,3.452c-0.6,0-0.888,0.432-0.959,1.08L5.209,5.059h1.224V6.33H5.054L4.79,8.465
		c-0.18,1.463-0.672,2.626-2.375,2.626c-0.492-0.012-0.911-0.108-1.091-0.204l0.252-1.271c0.18,0.072,0.372,0.096,0.563,0.096
		c0.6-0.012,0.804-0.335,0.972-1.703L3.303,6.33H2.367V5.059z"/>
	<path d="M14.568,5.49c-0.408,0.66-1.115,1.176-1.943,1.176c-0.648,0-1.091-0.264-1.475-0.444c-0.36-0.144-0.744-0.408-1.319-0.408
		S8.799,6.222,8.5,6.582L7.888,5.826c0.408-0.587,1.103-1.127,1.955-1.127c0.672,0,1.08,0.264,1.476,0.432
		c0.359,0.156,0.731,0.408,1.295,0.408c0.588,0,1.043-0.48,1.283-0.756L14.568,5.49z M14.592,8.009
		c-0.42,0.684-1.139,1.199-1.967,1.199c-0.624,0-1.08-0.264-1.463-0.432c-0.36-0.156-0.744-0.408-1.331-0.408
		c-0.54,0-1.02,0.408-1.319,0.755L7.9,8.357c0.42-0.6,1.14-1.115,1.955-1.115c0.66,0,1.091,0.264,1.475,0.432
		c0.36,0.156,0.744,0.408,1.295,0.408c0.6,0,1.055-0.408,1.319-0.755L14.592,8.009z"/>
</g>
<g>
	<path d="M26.795,11.083l-1.217-0.122l-1.395-5.094l-0.979,0.275l-0.207-0.84l2.188-0.648l0.909,3.671
		c0.085,0.358,0.144,0.726,0.188,1.007l0.024,0.003c0.073-0.246,0.171-0.622,0.304-0.994l2.786-8.074l1.218,0.122L26.795,11.083z"/>
</g>
</svg>
