<svg width="795" height="900" xmlns="http://www.w3.org/2000/svg" preserveAspectRatio="xMidYMid meet">
 <g>
  <title>Layer 1</title>
  <rect stroke="#AC0A04" rx="100" id="svg_8" height="811.715831" width="707.028651" y="44.361735" x="43.204462" fill-opacity="null" stroke-opacity="null" stroke-width="86" fill="none"/>
  <path fill="#AC0A04" stroke="null" transform="rotate(-180 396.3885498046875,449.53692626953125) " id="svg_2" d="m521.393653,779.367251c85.49364,-30.099108 136.012609,-100.977654 136.012609,-191.274979c0,-66.99479 -40.803783,-133.989579 -99.094901,-165.059627c-14.572779,-7.767512 -65.091748,-23.302536 -111.724643,-33.982864c-46.632894,-10.680329 -97.151863,-26.215352 -111.724643,-33.982864c-48.575932,-25.244413 -47.604413,-90.297325 1.943037,-115.541739c53.433525,-28.15723 182.645503,-11.651268 272.025217,33.982864l38.860745,19.41878l0,-72.820424l0,-71.849485l-70.92086,-22.331597c-52.462006,-16.505963 -95.208826,-21.360658 -171.958798,-22.331597c-120.46831,0 -177.78791,17.476902 -222.477767,67.965729c-53.433525,61.169156 -63.148711,184.478406 -19.430373,255.356952c24.287966,40.779437 91.322751,71.849485 205.96195,97.093898c46.632894,10.680329 95.208826,26.215352 108.810087,34.953803c31.088596,20.389719 32.060115,63.111034 3.886075,89.326386c-29.145559,26.215352 -167.101205,25.244413 -244.822695,-1.941878l-55.376562,-20.389719l0,69.907607l0,69.907607l55.376562,11.651268c31.088596,6.796573 95.208826,13.593146 143.784758,16.505963c70.92086,3.883756 97.151863,0.970939 140.870202,-14.564085z"/>
 </g>
</svg>